<?xml version="1.0"?>
<svg xmlns="http://www.w3.org/2000/svg" viewBox="0 0 512 512" width="512" height="512"><g id="outline"><rect x="96" y="232" width="16" height="104"/><path d="M456,200a8,8,0,0,0,8-8V168h8a8,8,0,0,0,8-8V136h8a8,8,0,0,0,8-8V96a8,8,0,0,0-5.629-7.641l-232-72a8,8,0,0,0-4.742,0l-232,72A8,8,0,0,0,16,96v32a8,8,0,0,0,8,8h8v24a8,8,0,0,0,8,8h8v24a8,8,0,0,0,8,8h8V384H56a8,8,0,0,0-8,8v24H40a8,8,0,0,0-8,8v24H24a8,8,0,0,0-8,8v32a8,8,0,0,0,8,8H488a8,8,0,0,0,8-8V456a8,8,0,0,0-8-8h-8V424a8,8,0,0,0-8-8h-8V392a8,8,0,0,0-8-8h-8V200Zm-8-16H368V168h80ZM360,384a8,8,0,0,0-8,8v24H304V392a8,8,0,0,0-8-8V344a7.962,7.962,0,0,0-.827-3.526c-.008-.017-.009-.035-.018-.052l-13.924-27.847,13.425-20.137A7.993,7.993,0,0,0,296,288V272a8,8,0,0,0-4.422-7.155l-13.615-6.808-2.758-5.516a23.9,23.9,0,0,0,4.8-14.41V224a24,24,0,0,0-48,0v14.111a23.9,23.9,0,0,0,4.795,14.41l-2.758,5.516-13.615,6.808A8,8,0,0,0,216,272v16a7.993,7.993,0,0,0,1.344,4.438l13.425,20.137-13.924,27.847c-.009.017-.01.035-.018.052A7.962,7.962,0,0,0,216,344v40a8,8,0,0,0-8,8v24H160V392a8,8,0,0,0-8-8h-8V200h8a8,8,0,0,0,8-8V168H352v24a8,8,0,0,0,8,8h8V384ZM264,238.111a7.956,7.956,0,0,1-4.422,7.156,8.047,8.047,0,0,1-7.156,0A7.956,7.956,0,0,1,248,238.111V224a8,8,0,0,1,16,0Zm-20.422,33.044a8,8,0,0,0,3.577-3.577l3.09-6.18a24.007,24.007,0,0,0,11.51,0l3.09,6.18a8,8,0,0,0,3.577,3.577L280,276.944v8.634L267.719,304H244.281L232,285.578v-8.634ZM244.944,320h22.112l8,16H236.944ZM232,352h48v32H232Zm-8,48h64v16H224Zm32-280a24,24,0,1,1,24-24A24.028,24.028,0,0,1,256,120Zm-30.658,0H76.768L222.026,74.92A39.755,39.755,0,0,0,216,96,33.91,33.91,0,0,0,225.342,120Zm64.632-45.08L435.231,120H286.658A33.91,33.91,0,0,0,296,96,39.755,39.755,0,0,0,289.974,74.92ZM256,32.376l224,69.518v15.247L258.371,48.359a8,8,0,0,0-4.742,0L32,117.141V101.894ZM464,136v16H48V136ZM144,168v16H64V168ZM80,200H96v16h16V200h16V384H112V352H96v32H80ZM64,400h80v16H64Zm416,80H32V464H480ZM48,448V432H464v16Zm320-32V400h80v16Zm64-32H416V264H400V384H384V200h16v48h16V200h16Z"/><rect x="184" y="96" width="16" height="16"/><rect x="312" y="96" width="16" height="16"/></g></svg>
